<?xml version="1.0" encoding="UTF-8" standalone="no"?>
<!-- Created with Inkscape (http://www.inkscape.org/) -->

<svg
   width="499.99899"
   height="85.551003"
   viewBox="0 0 132.2914 22.635369"
   version="1.1"
   id="svg5"
   inkscape:version="1.1 (c68e22c387, 2021-05-23)"
   sodipodi:docname="logo_dark.svg"
   xmlns:inkscape="http://www.inkscape.org/namespaces/inkscape"
   xmlns:sodipodi="http://sodipodi.sourceforge.net/DTD/sodipodi-0.dtd"
   xmlns="http://www.w3.org/2000/svg"
   xmlns:svg="http://www.w3.org/2000/svg">
  <sodipodi:namedview
     id="namedview7"
     pagecolor="#505050"
     bordercolor="#ffffff"
     borderopacity="1"
     inkscape:pageshadow="0"
     inkscape:pageopacity="0"
     inkscape:pagecheckerboard="1"
     inkscape:document-units="mm"
     showgrid="false"
     units="px"
     height="85.551px"
     inkscape:zoom="1"
     inkscape:cx="292.5"
     inkscape:cy="0.5"
     inkscape:window-width="1920"
     inkscape:window-height="1001"
     inkscape:window-x="-9"
     inkscape:window-y="-9"
     inkscape:window-maximized="1"
     inkscape:current-layer="layer1" />
  <defs
     id="defs2">
    <clipPath
       clipPathUnits="userSpaceOnUse"
       id="clipPath10386">
      <rect
         style="fill:#a02c2c;fill-opacity:1;stroke:none;stroke-width:0.242819"
         id="rect10388"
         width="23.506001"
         height="24.506159"
         x="90.617912"
         y="67.940582" />
    </clipPath>
    <filter
       inkscape:collect="always"
       style="color-interpolation-filters:sRGB"
       id="filter10410"
       x="-0.010524994"
       y="-0.01395581"
       width="1.02105"
       height="1.0279116">
      <feGaussianBlur
         inkscape:collect="always"
         stdDeviation="0.11883031"
         id="feGaussianBlur10412" />
    </filter>
    <clipPath
       clipPathUnits="userSpaceOnUse"
       id="clipPath10416">
      <rect
         style="fill:#a02c2c;fill-opacity:1;stroke:none;stroke-width:0.242819"
         id="rect10418"
         width="23.506001"
         height="24.506159"
         x="90.088745"
         y="67.411415" />
    </clipPath>
    <filter
       inkscape:collect="always"
       style="color-interpolation-filters:sRGB"
       id="filter19064"
       x="-0.006642079"
       y="-0.062067863"
       width="1.0132842"
       height="1.1241357">
      <feGaussianBlur
         inkscape:collect="always"
         stdDeviation="0.31684744"
         id="feGaussianBlur19066" />
    </filter>
  </defs>
  <g
     inkscape:label="Layer 1"
     inkscape:groupmode="layer"
     id="layer1">
    <text
       xml:space="preserve"
       style="font-style:normal;font-weight:normal;font-size:16.6942px;line-height:1.25;font-family:sans-serif;mix-blend-mode:normal;fill:#333333;fill-opacity:1;stroke:none;stroke-width:0.417355;filter:url(#filter19064)"
       x="74.686668"
       y="116.84201"
       id="text19044"
       transform="matrix(0.92365769,0,0,0.92366041,-43.376452,-90.613931)"><tspan
         sodipodi:role="line"
         id="tspan19042"
         style="font-style:normal;font-variant:normal;font-weight:bold;font-stretch:normal;font-family:'Perpetua Titling MT';-inkscape-font-specification:'Perpetua Titling MT Bold';fill:#333333;stroke-width:0.417355"
         x="74.686668"
         y="116.84201"><tspan
   style="fill:#333333;fill-opacity:1"
   id="tspan19040">RE</tspan>IMAGINED</tspan></text>
    <path
       d="m 29.546872,11.624499 h -0.35387 v 3.54623 q 0,0.632448 0.188229,0.948673 0.188229,0.308695 0.459278,0.399044 0.27105,0.08282 0.722799,0.09788 v 0.203288 h -5.210172 v -0.218346 q 0.873381,0 1.121843,-0.391516 0.248462,-0.391515 0.248462,-1.039022 V 7.4006456 q 0,-0.79809 -0.323754,-1.1218434 Q 26.075934,5.9475196 25.353136,5.9475196 V 5.7291742 h 5.75227 q 1.136902,0 1.995225,0.3538701 0.858323,0.35387 1.310072,1.001377 0.451749,0.6475069 0.451749,1.4832426 0,0.6776235 -0.286107,1.204664 -0.286108,0.5270401 -0.775503,0.8658521 -0.481865,0.338812 -1.076668,0.519512 0.775502,0.489394 1.50583,1.731704 l 1.32513,2.251216 q 0.338812,0.579745 0.62492,0.903498 0.286107,0.316224 0.504453,0.421632 0.218345,0.09788 0.474336,0.135525 v 0.218346 h -3.576346 q -0.519512,-0.941144 -0.79809,-1.498301 -0.88844,-1.739234 -1.295014,-2.416858 -0.406574,-0.677623 -0.843265,-0.978789 -0.429161,-0.301166 -1.099256,-0.301166 z m 0.248462,-5.2779345 h -0.602332 v 4.6605445 h 0.504453 q 1.295014,0 1.95005,-0.617391 0.655036,-0.6249193 0.655036,-1.7919375 0,-0.7227985 -0.286107,-1.2197224 Q 31.737855,6.8736051 31.173169,6.6100848 30.616012,6.3465645 29.795334,6.3465645 Z"
       style="font-size:15.4197px;line-height:1.25;fill:#000000;stroke-width:0.385494"
       id="path19110" />
    <path
       d="m 45.538787,5.7291742 0.09035,2.4846196 H 45.410791 Q 45.260208,7.5888743 45.07198,7.1823002 44.89128,6.7757261 44.552468,6.5649099 44.213656,6.3465645 43.626383,6.3465645 h -2.236158 v 4.6605445 h 1.784409 q 0.79809,0 1.159489,-0.353871 0.368928,-0.35387 0.429161,-1.0465514 h 0.218346 v 3.2525924 h -0.218346 q -0.112937,-0.737856 -0.549628,-0.986318 -0.43669,-0.248462 -1.039022,-0.248462 h -1.784409 v 3.19236 q 0,1.385363 1.430539,1.385363 h 0.677623 q 0.685153,0 1.114314,-0.180699 0.436691,-0.1807 0.71527,-0.617391 0.286107,-0.44422 0.511982,-1.249839 h 0.218345 l -0.165641,2.66532 H 37.5353 v -0.218346 q 0.873382,0 1.129373,-0.391516 0.255991,-0.399045 0.255991,-1.039022 V 7.4006456 q 0,-0.6098612 -0.233404,-1.0314936 Q 38.453857,5.9475196 37.610592,5.9475196 H 37.5353 V 5.7291742 Z"
       style="font-size:15.4197px;line-height:1.25;fill:#000000;stroke-width:0.385494"
       id="path19112" />
    <path
       d="M 46.525106,5.9324613 V 5.7291742 h 5.210172 v 0.2183454 q -0.865852,0 -1.121843,0.3990449 -0.248462,0.3915158 -0.248462,1.0390228 v 7.7851417 q 0,0.368928 0.06776,0.662565 0.06776,0.293637 0.35387,0.534569 0.293637,0.233404 0.88844,0.233404 h 0.06023 v 0.218346 h -5.210172 v -0.218346 q 0.858323,0 1.114315,-0.391516 0.255991,-0.391515 0.255991,-1.039022 V 7.3855873 q 0,-0.7679734 -0.338812,-1.1067851 -0.331283,-0.3463409 -1.031494,-0.3463409 z"
       style="font-weight:bold;font-size:15.4197px;line-height:1.25;font-family:'Perpetua Titling MT';-inkscape-font-specification:'Perpetua Titling MT Bold';fill:#e6e6e6;stroke-width:0.385494"
       id="path19114" />
    <path
       d="m 66.296654,5.7291742 v 0.2183454 q -0.436691,0.030117 -0.722798,0.1129372 -0.278579,0.075292 -0.466808,0.3613992 -0.188228,0.2785786 -0.135524,0.8357357 l 0.609861,7.4463293 q 0.06776,0.783032 0.218345,1.159489 0.158112,0.368929 0.383987,0.496924 0.233403,0.127996 0.730327,0.240933 v 0.218346 h -5.089705 v -0.218346 q 0.639978,-0.01506 1.001377,-0.338812 0.368928,-0.323753 0.293637,-1.279955 L 62.577254,7.9201569 h -0.03012 l -3.621521,8.8994561 h -0.26352 L 54.927637,8.2137938 h -0.03012 l -0.489395,6.1814322 q -0.07529,0.911027 0.127995,1.400422 0.203287,0.481866 0.53457,0.632449 0.338812,0.143054 0.783032,0.17317 v 0.218346 h -3.764575 v -0.218346 q 0.715269,-0.04518 1.076668,-0.572215 0.368928,-0.527041 0.496924,-1.754292 l 0.74539,-7.0171683 Q 53.707915,6.1357483 52.495722,5.9475196 V 5.7291742 h 4.005508 l 3.207418,7.2957468 2.974014,-7.2957468 z"
       style="font-weight:bold;font-size:15.4197px;line-height:1.25;font-family:'Perpetua Titling MT';-inkscape-font-specification:'Perpetua Titling MT Bold';fill:#e6e6e6;stroke-width:0.385494"
       id="path19116" />
    <path
       d="m 73.652633,5.6237661 3.726929,9.5921379 q 0.301166,0.737856 0.70774,1.016435 0.406575,0.271049 1.001377,0.368928 v 0.218346 h -5.255346 v -0.218346 q 1.076668,-0.06023 1.076668,-0.677623 0,-0.09788 -0.03765,-0.27105 -0.03012,-0.180699 -0.09035,-0.376457 -0.0527,-0.203287 -0.06776,-0.248462 L 73.788156,12.671051 H 70.47533 l -0.790561,2.266274 q -0.150583,0.406574 -0.150583,0.737857 0,0.511982 0.301166,0.692681 0.301166,0.173171 0.715269,0.233404 v 0.218346 h -3.327884 v -0.218346 q 0.519511,-0.0527 0.97126,-0.481865 0.451749,-0.436691 0.873381,-1.59618 l 3.147185,-8.8994559 z m -2.92131,6.3094279 h 2.763198 L 72.063982,8.1987355 Z"
       style="font-weight:bold;font-size:15.4197px;line-height:1.25;font-family:'Perpetua Titling MT';-inkscape-font-specification:'Perpetua Titling MT Bold';fill:#e6e6e6;stroke-width:0.385494"
       id="path19118" />
    <path
       d="M 89.260562,8.8010675 H 89.042217 Q 88.605526,7.6491075 87.581562,6.9338383 86.565126,6.2110398 85.20235,6.2110398 q -1.054081,0 -1.754292,0.451749 -0.700211,0.4517491 -1.091727,1.2046641 -0.383986,0.7453859 -0.534569,1.6187673 -0.150583,0.8733818 -0.150583,1.8446418 0,2.409328 0.956202,3.704342 0.963731,1.287485 2.590028,1.287485 1.167018,0 1.460655,-0.346341 0.293637,-0.346341 0.293637,-1.023965 v -1.279955 q 0,-0.383987 -0.06023,-0.677624 -0.06023,-0.293637 -0.316224,-0.534569 -0.248462,-0.248462 -0.760444,-0.278579 v -0.233404 h 4.622898 v 0.233404 q -1.016435,0.135525 -1.016435,1.24231 v 2.702965 q -1.77688,0.813148 -4.020566,0.813148 -0.903498,0 -1.641355,-0.120466 -0.730328,-0.127996 -1.302543,-0.346341 -0.572216,-0.225875 -0.963731,-0.481866 -0.391516,-0.26352 -0.737857,-0.587274 -0.474337,-0.451749 -0.850794,-1.039022 -0.368928,-0.587274 -0.609861,-1.362777 -0.233404,-0.783031 -0.233404,-1.716646 0,-1.257368 0.44422,-2.2963907 0.451749,-1.0390228 1.272426,-1.7994669 0.820678,-0.7679734 1.874759,-1.1670183 1.06161,-0.399045 2.236157,-0.399045 0.662566,0 1.144431,0.09035 0.481866,0.09035 1.618768,0.3915158 0.361399,0.1204664 0.783031,0.1204664 0.44422,0 0.587274,-0.5872737 h 0.218345 z"
       style="font-weight:bold;font-size:15.4197px;line-height:1.25;font-family:'Perpetua Titling MT';-inkscape-font-specification:'Perpetua Titling MT Bold';fill:#e6e6e6;stroke-width:0.385494"
       id="path19120" />
    <path
       d="M 90.909445,5.9324613 V 5.7291742 h 5.210172 v 0.2183454 q -0.865853,0 -1.121844,0.3990449 -0.248462,0.3915158 -0.248462,1.0390228 v 7.7851417 q 0,0.368928 0.06776,0.662565 0.06776,0.293637 0.35387,0.534569 0.293637,0.233404 0.888439,0.233404 h 0.06023 v 0.218346 h -5.210172 v -0.218346 q 0.858323,0 1.114314,-0.391516 0.255991,-0.391515 0.255991,-1.039022 V 7.3855873 q 0,-0.7679734 -0.338812,-1.1067851 -0.331282,-0.3463409 -1.031493,-0.3463409 z"
       style="font-weight:bold;font-size:15.4197px;line-height:1.25;font-family:'Perpetua Titling MT';-inkscape-font-specification:'Perpetua Titling MT Bold';fill:#e6e6e6;stroke-width:0.385494"
       id="path19122" />
    <path
       d="m 100.56182,5.7291742 6.7687,7.1451638 V 7.7996905 q 0,-1.001377 -0.40657,-1.3627762 -0.40658,-0.3689283 -1.24231,-0.4893947 V 5.7291742 h 3.82481 v 0.2183454 q -0.63245,0.067762 -0.94115,0.3463409 -0.30869,0.2710494 -0.39904,0.6399778 -0.0904,0.3689283 -0.0904,0.8658522 v 9.1403885 h -0.27858 L 99.680906,8.4020225 v 6.2416655 q 0,0.783032 0.331284,1.340189 0.33881,0.549628 1.24231,0.61739 v 0.218346 h -3.960335 v -0.218346 q 1.663942,-0.135525 1.648884,-1.633825 V 7.6265201 Q 98.897874,7.5964035 98.822583,7.521112 98.75482,7.4533496 98.596708,7.3027666 98.438596,7.1521836 98.3106,7.0317172 97.301694,6.0604568 96.54125,5.9475196 V 5.7291742 Z"
       style="font-weight:bold;font-size:15.4197px;line-height:1.25;font-family:'Perpetua Titling MT';-inkscape-font-specification:'Perpetua Titling MT Bold';fill:#e6e6e6;stroke-width:0.385494"
       id="path19124" />
    <path
       d="m 117.88639,5.7291742 0.0904,2.4846196 h -0.21835 q -0.15058,-0.6249195 -0.33881,-1.0314936 -0.1807,-0.4065741 -0.51951,-0.6173903 -0.33881,-0.2183454 -0.92609,-0.2183454 h -2.23615 v 4.6605445 h 1.78441 q 0.79809,0 1.15948,-0.353871 0.36893,-0.35387 0.42917,-1.0465514 h 0.21834 v 3.2525924 h -0.21834 q -0.11294,-0.737856 -0.54963,-0.986318 -0.43669,-0.248462 -1.03902,-0.248462 h -1.78441 v 3.19236 q 0,1.385363 1.43054,1.385363 h 0.67762 q 0.68515,0 1.11431,-0.180699 0.43669,-0.1807 0.71527,-0.617391 0.28611,-0.44422 0.51198,-1.249839 h 0.21835 l -0.16564,2.66532 h -8.35736 v -0.218346 q 0.87338,0 1.12937,-0.391516 0.256,-0.399045 0.256,-1.039022 V 7.4006456 q 0,-0.6098612 -0.23341,-1.0314936 -0.2334,-0.4216324 -1.07667,-0.4216324 h -0.0753 V 5.7291742 Z"
       style="font-weight:bold;font-size:15.4197px;line-height:1.25;font-family:'Perpetua Titling MT';-inkscape-font-specification:'Perpetua Titling MT Bold';fill:#e6e6e6;stroke-width:0.385494"
       id="path19126" />
    <path
       d="m 118.82001,5.7291742 h 6.06096 q 1.48324,0 2.65779,0.4592782 1.18208,0.451749 1.97264,1.2573681 0.79056,0.805619 1.1896,1.8371126 0.39905,1.0239649 0.39905,2.1683949 0,1.114315 -0.37646,2.078046 -0.36893,0.963731 -1.12184,1.709117 -0.75292,0.745386 -1.88229,1.167018 -1.12937,0.414104 -2.54485,0.414104 h -6.3546 v -0.218346 q 0.87338,0 1.12184,-0.383987 0.25599,-0.391515 0.25599,-1.046551 V 7.4157039 q 0,-0.6173904 -0.22587,-1.0390228 -0.22588,-0.4291615 -1.06914,-0.4291615 h -0.0828 z m 3.83986,0.7453859 v 8.1239529 q 0,0.587274 0.128,0.933615 0.13552,0.346341 0.49692,0.511982 0.3614,0.158112 1.09173,0.158112 0.65503,0 1.17455,-0.08282 0.51951,-0.09035 0.97878,-0.346341 0.67763,-0.391516 1.11432,-1.076669 0.44422,-0.685153 0.64751,-1.50583 0.20328,-0.820677 0.20328,-1.694059 0,-0.903498 -0.24093,-1.7994666 -0.24093,-0.8959689 -0.79056,-1.6564131 -0.5421,-0.7604441 -1.47571,-1.2272515 -0.92609,-0.4668073 -2.25875,-0.4668073 -0.47434,0 -1.06914,0.1279956 z"
       style="font-weight:bold;font-size:15.4197px;line-height:1.25;font-family:'Perpetua Titling MT';-inkscape-font-specification:'Perpetua Titling MT Bold';fill:#e6e6e6;stroke-width:0.385494"
       id="path19128" />
    <rect
       style="fill:#000000;fill-opacity:1;stroke:none;stroke-width:0.224282"
       id="rect9431"
       width="21.711498"
       height="22.635368"
       x="4.8511632e-05"
       y="7.8735712e-07" />
    <path
       d="m 99.80148,80.361215 -0.562896,0.150829 1.511476,5.640902 c 0.17971,0.670681 0.41429,1.14695 0.70375,1.428805 0.28733,0.273871 0.58755,0.420203 0.90066,0.438996 0.31096,0.01081 0.70811,-0.03999 1.19145,-0.152374 l 0.0866,0.323364 -8.287692,2.220681 -0.09306,-0.347318 c 0.926178,-0.248169 1.465384,-0.615144 1.617619,-1.100927 0.152234,-0.485783 0.136357,-1.072 -0.04763,-1.758649 L 93.510026,74.845839 C 93.283251,73.999504 92.952205,73.450671 92.516887,73.19934 92.07943,72.940025 90.658941,72.913059 89.892448,73.11844 l 0.345429,-0.347318 9.530027,-2.451737 c 1.208796,-0.31098 2.313816,-0.418883 3.324576,-0.28751 1.01077,0.131371 1.84767,0.476199 2.51072,1.034484 0.66305,0.558285 1.11331,1.280557 1.35078,2.166814 0.19254,0.718586 0.21197,1.397978 0.0583,2.038175 -0.15365,0.640197 -0.44183,1.209472 -0.86454,1.707827 -0.41473,0.496215 -0.91179,0.924639 -1.4912,1.285271 0.96145,0.298623 2.0059,1.002879 3.13337,2.112769 0,0 4.18991,3.706043 6.97286,2.7706 0.52402,0.51852 0.0366,1.154348 0.43199,1.416375 0.39325,0.254043 0.72063,0.405935 0.98212,0.455675 0.25935,0.04175 0.53011,0.04622 0.81228,0.01341 l -2.86524,0.347318 -5.6888,1.52431 c -0.81835,-0.850426 -1.45439,-1.531479 -1.90812,-2.043158 -1.43634,-1.591925 -2.46636,-2.689418 -3.09005,-3.292477 -0.62369,-0.603062 -1.20988,-1.002235 -1.75856,-1.197519 -0.54067,-0.197427 -1.16631,-0.200941 -1.876906,-0.01054 z m -1.854341,-8.501381 -0.958118,0.256727 1.986419,7.413416 0.80242,-0.215008 c 1.37331,-0.367977 2.31956,-0.972385 2.83876,-1.813223 0.51706,-0.848822 0.60979,-1.892015 0.27819,-3.12958 -0.20538,-0.766492 -0.53037,-1.372571 -0.97498,-1.818237 -0.43876,-0.455791 -0.99499,-0.743185 -1.66868,-0.862183 -0.665721,-0.121134 -1.433724,-0.0651 -2.304011,0.168088 z"
       style="font-weight:bold;font-size:10.5833px;line-height:1.25;font-family:'Perpetua Titling MT';-inkscape-font-specification:'Perpetua Titling MT Bold';mix-blend-mode:normal;fill:#333333;stroke-width:0.634826;filter:url(#filter10410)"
       id="path10390"
       sodipodi:nodetypes="ccsccccccscccccsssssccccccccccscscsccscsccs"
       clip-path="url(#clipPath10416)"
       transform="matrix(0.92365769,0,0,0.92366041,-83.211114,-62.265253)" />
    <path
       d="m 99.80148,80.361215 -0.562896,0.150829 1.511476,5.640902 c 0.17971,0.670681 0.41429,1.14695 0.70375,1.428805 0.28733,0.273871 0.58755,0.420203 0.90066,0.438996 0.31096,0.01081 0.70811,-0.03999 1.19145,-0.152374 l 0.0866,0.323364 -8.287692,2.220681 -0.09306,-0.347318 c 0.926178,-0.248169 1.465384,-0.615144 1.617619,-1.100927 0.152234,-0.485783 0.136357,-1.072 -0.04763,-1.758649 L 93.510026,74.845839 C 93.283251,73.999504 92.952205,73.450671 92.516887,73.19934 92.07943,72.940025 90.658941,72.913059 89.892448,73.11844 l 0.345429,-0.347318 9.530027,-2.451737 c 1.208796,-0.31098 2.313816,-0.418883 3.324576,-0.28751 1.01077,0.131371 1.84767,0.476199 2.51072,1.034484 0.66305,0.558285 1.11331,1.280557 1.35078,2.166814 0.19254,0.718586 0.21197,1.397978 0.0583,2.038175 -0.15365,0.640197 -0.44183,1.209472 -0.86454,1.707827 -0.41473,0.496215 -0.91179,0.924639 -1.4912,1.285271 0.96145,0.298623 2.0059,1.002879 3.13337,2.112769 0,0 4.18991,3.706043 6.97286,2.7706 0.52402,0.51852 0.0366,1.154348 0.43199,1.416375 0.39325,0.254043 0.72063,0.405935 0.98212,0.455675 0.25935,0.04175 0.53011,0.04622 0.81228,0.01341 l -2.86524,0.347318 -5.6888,1.52431 c -0.81835,-0.850426 -1.45439,-1.531479 -1.90812,-2.043158 -1.43634,-1.591925 -2.46636,-2.689418 -3.09005,-3.292477 -0.62369,-0.603062 -1.20988,-1.002235 -1.75856,-1.197519 -0.54067,-0.197427 -1.16631,-0.200941 -1.876906,-0.01054 z m -1.854341,-8.501381 -0.958118,0.256727 1.986419,7.413416 0.80242,-0.215008 c 1.37331,-0.367977 2.31956,-0.972385 2.83876,-1.813223 0.51706,-0.848822 0.60979,-1.892015 0.27819,-3.12958 -0.20538,-0.766492 -0.53037,-1.372571 -0.97498,-1.818237 -0.43876,-0.455791 -0.99499,-0.743185 -1.66868,-0.862183 -0.665721,-0.121134 -1.433724,-0.0651 -2.304011,0.168088 z"
       style="font-weight:bold;font-size:10.5833px;line-height:1.25;font-family:'Perpetua Titling MT';-inkscape-font-specification:'Perpetua Titling MT Bold';fill:#e6e6e6;stroke-width:0.634826"
       id="path9280"
       sodipodi:nodetypes="ccsccccccscccccsssssccccccccccscscsccscsccs"
       clip-path="url(#clipPath10386)"
       transform="matrix(0.92365769,0,0,0.92366041,-83.699883,-62.754024)" />
  </g>
</svg>
